<svg width="378" height="84" viewBox="0 0 378 84" fill="none" xmlns="http://www.w3.org/2000/svg">
<rect width="378" height="84" rx="14" fill="#121213"/>
<path d="M64.225 37.77L63.945 46.1C63.945 48.97 64.1783 51.385 64.645 53.345C65.135 55.305 66.0333 56.6583 67.34 57.405C65.73 58.4083 64.0967 58.91 62.44 58.91C59.5233 58.91 57.7267 56.5533 57.05 51.84H49.91C49.4667 53.3567 49.245 54.5233 49.245 55.34C49.245 56.1333 49.3383 56.775 49.525 57.265C47.7983 58.3617 46.2583 58.91 44.905 58.91C42.8283 58.91 41.79 57.65 41.79 55.13C41.79 53.87 42.175 52.2833 42.945 50.37C43.7383 48.4567 44.7767 46.2633 46.06 43.79C47.3667 41.3167 48.195 39.6833 48.545 38.89C48.2883 37.63 47.9967 36.3933 47.67 35.18C48.8833 34.34 50.05 33.71 51.17 33.29C52.3133 32.8467 53.5383 32.625 54.845 32.625C56.175 32.625 57.0967 32.9167 57.61 33.5C58.94 32.9167 60.0367 32.625 60.9 32.625C61.7633 32.625 62.405 32.765 62.825 33.045C63.245 33.325 63.5483 33.7333 63.735 34.27C64.0617 35.2033 64.225 36.37 64.225 37.77ZM57.19 38.575H56.07C53.97 42.635 52.4067 45.8317 51.38 48.165H56.805C56.805 45.6217 56.9333 42.425 57.19 38.575ZM77.368 50.335C77.228 51.175 77.158 51.8167 77.158 52.26C77.158 54.5233 77.508 56.215 78.208 57.335C76.808 58.385 75.3497 58.91 73.833 58.91C72.3164 58.91 71.2314 58.4783 70.578 57.615C69.9247 56.7283 69.598 55.4217 69.598 53.695C69.598 51.945 70.333 47.01 71.803 38.89L69.948 35.145C72.5847 33.4417 74.988 32.59 77.158 32.59C77.7647 32.59 78.4297 32.7067 79.153 32.94C79.8764 33.15 80.3897 33.395 80.693 33.675C82.4197 32.9983 84.018 32.66 85.488 32.66C87.6814 32.66 89.408 33.43 90.668 34.97C91.9514 36.4867 92.593 38.33 92.593 40.5C92.593 43.1133 91.648 45.4467 89.758 47.5C88.848 48.5033 87.623 49.3083 86.083 49.915C84.543 50.5217 82.968 50.825 81.358 50.825C79.7714 50.825 78.4414 50.6617 77.368 50.335ZM78.033 46.345C78.3597 46.415 78.698 46.45 79.048 46.45C80.5414 46.45 81.8714 45.925 83.038 44.875C84.2047 43.825 84.788 42.53 84.788 40.99C84.788 39.9167 84.473 39.0067 83.843 38.26C83.2364 37.5133 82.373 37.14 81.253 37.14C80.7864 37.14 80.2497 37.2333 79.643 37.42C79.1764 40.6167 78.6397 43.5917 78.033 46.345ZM99.0959 58.91C97.5793 58.91 96.4943 58.4783 95.8409 57.615C95.1876 56.7283 94.8609 55.4217 94.8609 53.695C94.8609 51.945 95.5959 47.01 97.0659 38.89L95.2109 35.145C97.8476 33.4417 100.251 32.59 102.421 32.59C104.218 32.59 105.116 33.6867 105.116 35.88C105.116 36.6033 104.661 39.2983 103.751 43.965C102.864 48.6083 102.421 51.3733 102.421 52.26C102.421 54.5233 102.771 56.215 103.471 57.335C102.071 58.385 100.613 58.91 99.0959 58.91ZM110.285 51.595C108.815 51.595 108.08 50.7433 108.08 49.04C108.08 47.8033 108.407 46.4733 109.06 45.05C109.55 45.2133 110.262 45.295 111.195 45.295C112.152 45.295 113.669 44.9217 115.745 44.175C117.845 43.4283 119.432 43.055 120.505 43.055C121.975 43.055 122.71 43.9067 122.71 45.61C122.71 46.8467 122.384 48.1767 121.73 49.6C121.24 49.4367 120.517 49.355 119.56 49.355C118.627 49.355 117.11 49.7283 115.01 50.475C112.934 51.2217 111.359 51.595 110.285 51.595ZM126.746 52.295C126.746 50.965 127.061 48.62 127.691 45.26C128.321 41.9 128.706 39.7767 128.846 38.89L126.991 35.145C129.955 33.465 132.475 32.625 134.551 32.625C135.578 32.625 136.348 32.975 136.861 33.675C138.798 32.9983 140.583 32.66 142.216 32.66C145.25 32.66 147.606 33.6517 149.286 35.635C150.966 37.595 151.806 40.045 151.806 42.985C151.806 46.8583 150.383 50.4167 147.536 53.66C146.16 55.2233 144.34 56.4833 142.076 57.44C139.836 58.3967 137.433 58.875 134.866 58.875C132.3 58.875 130.305 58.315 128.881 57.195C127.458 56.0517 126.746 54.4183 126.746 52.295ZM134.166 53.625C134.656 53.7183 135.205 53.765 135.811 53.765C138.355 53.765 140.338 52.855 141.761 51.035C143.185 49.1917 143.896 46.9283 143.896 44.245C143.896 42.075 143.406 40.3483 142.426 39.065C141.446 37.7817 140.035 37.14 138.191 37.14C137.911 37.14 137.445 37.1867 136.791 37.28C136.628 38.47 136.196 41.13 135.496 45.26C134.82 49.3667 134.376 52.155 134.166 53.625ZM166.764 53.695L166.414 53.52C165.784 55.2 164.874 56.5183 163.684 57.475C162.518 58.4083 161.211 58.875 159.764 58.875C157.781 58.875 156.194 58.1283 155.004 56.635C153.814 55.1417 153.219 53.1467 153.219 50.65C153.219 46.7767 154.514 43.5333 157.104 40.92C159.718 38.3067 162.961 37 166.834 37C167.838 37 168.759 37.0933 169.599 37.28C169.739 37.9333 169.821 38.505 169.844 38.995C171.011 38.2483 172.213 37.875 173.449 37.875C175.153 37.875 176.004 38.7967 176.004 40.64C176.004 41.2933 175.631 43.265 174.884 46.555C174.161 49.845 173.799 52.2833 173.799 53.87C173.799 55.4567 174.161 56.5533 174.884 57.16C173.578 58.3033 172.213 58.875 170.789 58.875C169.389 58.875 168.363 58.455 167.709 57.615C167.079 56.775 166.764 55.4683 166.764 53.695ZM159.799 48.935C159.799 50.0783 160.033 50.965 160.499 51.595C160.989 52.2017 161.678 52.505 162.564 52.505C163.451 52.505 164.326 52.1783 165.189 51.525C166.053 50.8717 166.776 49.9733 167.359 48.83C167.569 46.4733 168.024 43.685 168.724 40.465C166.368 40.465 164.291 41.3167 162.494 43.02C160.698 44.7233 159.799 46.695 159.799 48.935ZM190.821 31.47C190.821 32.3567 190.354 33.1267 189.421 33.78C188.487 34.41 187.426 34.725 186.236 34.725C185.046 34.725 184.101 34.4917 183.401 34.025C182.724 33.5583 182.386 32.9283 182.386 32.135C182.386 31.0617 182.887 30.2217 183.891 29.615C184.894 29.0083 185.956 28.705 187.076 28.705C188.196 28.705 189.094 28.9383 189.771 29.405C190.471 29.8717 190.821 30.56 190.821 31.47ZM183.996 58.875C182.549 58.875 181.499 58.5133 180.846 57.79C180.192 57.0667 179.866 55.97 179.866 54.5C179.866 53.0067 180.612 49.0283 182.106 42.565L180.146 39.625C183.062 37.875 185.361 37 187.041 37C187.997 37 188.674 37.21 189.071 37.63C189.467 38.0267 189.666 38.68 189.666 39.59C189.666 39.94 189.234 41.9933 188.371 45.75C187.507 49.5067 187.076 52.19 187.076 53.8C187.076 55.41 187.437 56.53 188.161 57.16C186.854 58.3033 185.466 58.875 183.996 58.875ZM196.375 36.23L194.415 33.43C197.332 31.7267 199.63 30.875 201.31 30.875C202.267 30.875 202.943 31.0733 203.34 31.47C203.737 31.8433 203.935 32.5667 203.935 33.64C203.935 34.69 203.41 37.6767 202.36 42.6C201.333 47.5233 200.82 50.9767 200.82 52.96C200.82 54.9433 201.182 56.3433 201.905 57.16C200.272 58.3033 198.79 58.875 197.46 58.875C196.13 58.875 195.15 58.4433 194.52 57.58C193.913 56.6933 193.61 55.48 193.61 53.94C193.61 52.4 194.042 49.25 194.905 44.49C195.768 39.73 196.258 36.9767 196.375 36.23ZM216.247 57.3C215.15 57.6967 214.054 57.895 212.957 57.895C211.86 57.895 210.939 57.5683 210.192 56.915C209.445 56.2617 209.014 55.375 208.897 54.255C208.78 53.135 208.675 51.5133 208.582 49.39C208.489 47.2433 208.395 45.7267 208.302 44.84C207.999 41.8767 207.065 39.765 205.502 38.505C206.599 37.5017 207.975 37 209.632 37C210.542 37 211.335 37.245 212.012 37.735C212.689 38.2017 213.225 38.8317 213.622 39.625C214.042 40.395 214.38 41.3983 214.637 42.635C215.034 44.6883 215.232 47.465 215.232 50.965C215.232 51.8283 215.197 52.8433 215.127 54.01H217.157C219.56 47.5233 220.762 43.1017 220.762 40.745C220.762 39.9517 220.587 39.205 220.237 38.505C221.87 37.5017 223.294 37 224.507 37C226.77 37 227.902 38.3067 227.902 40.92C227.902 42.9967 226.945 46.6483 225.032 51.875C224.682 52.8317 224.484 53.3917 224.437 53.555C221.474 62.0017 217.262 66.225 211.802 66.225C210.145 66.225 208.78 65.8633 207.707 65.14C206.634 64.44 206.097 63.5067 206.097 62.34C206.097 61.1967 206.529 59.995 207.392 58.735C208.512 60.3217 209.912 61.115 211.592 61.115C212.549 61.115 213.435 60.8 214.252 60.17C215.092 59.54 215.757 58.5833 216.247 57.3ZM233.093 51.595C231.623 51.595 230.888 50.7433 230.888 49.04C230.888 47.8033 231.215 46.4733 231.868 45.05C232.358 45.2133 233.07 45.295 234.003 45.295C234.96 45.295 236.476 44.9217 238.553 44.175C240.653 43.4283 242.24 43.055 243.313 43.055C244.783 43.055 245.518 43.9067 245.518 45.61C245.518 46.8467 245.191 48.1767 244.538 49.6C244.048 49.4367 243.325 49.355 242.368 49.355C241.435 49.355 239.918 49.7283 237.818 50.475C235.741 51.2217 234.166 51.595 233.093 51.595ZM249.554 52.295C249.554 50.965 249.869 48.62 250.499 45.26C251.129 41.9 251.514 39.7767 251.654 38.89L249.799 35.145C252.762 33.465 255.282 32.625 257.359 32.625C258.386 32.625 259.156 32.975 259.669 33.675C261.606 32.9983 263.391 32.66 265.024 32.66C268.057 32.66 270.414 33.6517 272.094 35.635C273.774 37.595 274.614 40.045 274.614 42.985C274.614 46.8583 273.191 50.4167 270.344 53.66C268.967 55.2233 267.147 56.4833 264.884 57.44C262.644 58.3967 260.241 58.875 257.674 58.875C255.107 58.875 253.112 58.315 251.689 57.195C250.266 56.0517 249.554 54.4183 249.554 52.295ZM256.974 53.625C257.464 53.7183 258.012 53.765 258.619 53.765C261.162 53.765 263.146 52.855 264.569 51.035C265.992 49.1917 266.704 46.9283 266.704 44.245C266.704 42.075 266.214 40.3483 265.234 39.065C264.254 37.7817 262.842 37.14 260.999 37.14C260.719 37.14 260.252 37.1867 259.599 37.28C259.436 38.47 259.004 41.13 258.304 45.26C257.627 49.3667 257.184 52.155 256.974 53.625ZM287.857 31.47C287.857 32.3567 287.39 33.1267 286.457 33.78C285.524 34.41 284.462 34.725 283.272 34.725C282.082 34.725 281.137 34.4917 280.437 34.025C279.76 33.5583 279.422 32.9283 279.422 32.135C279.422 31.0617 279.924 30.2217 280.927 29.615C281.93 29.0083 282.992 28.705 284.112 28.705C285.232 28.705 286.13 28.9383 286.807 29.405C287.507 29.8717 287.857 30.56 287.857 31.47ZM281.032 58.875C279.585 58.875 278.535 58.5133 277.882 57.79C277.229 57.0667 276.902 55.97 276.902 54.5C276.902 53.0067 277.649 49.0283 279.142 42.565L277.182 39.625C280.099 37.875 282.397 37 284.077 37C285.034 37 285.71 37.21 286.107 37.63C286.504 38.0267 286.702 38.68 286.702 39.59C286.702 39.94 286.27 41.9933 285.407 45.75C284.544 49.5067 284.112 52.19 284.112 53.8C284.112 55.41 284.474 56.53 285.197 57.16C283.89 58.3033 282.502 58.875 281.032 58.875ZM299.781 58.875C296.585 58.875 294.111 58.0467 292.361 56.39C290.635 54.7333 289.771 52.4933 289.771 49.67C289.771 45.9133 291.055 42.8683 293.621 40.535C296.211 38.1783 299.455 37 303.351 37C305.521 37 307.166 37.49 308.286 38.47C309.406 39.4267 309.966 40.6983 309.966 42.285C309.966 44.455 308.905 46.2633 306.781 47.71C304.681 49.1333 301.426 49.8567 297.016 49.88C297.086 51.3733 297.425 52.5517 298.031 53.415C298.638 54.255 299.396 54.675 300.306 54.675C301.216 54.675 301.998 54.3717 302.651 53.765C303.328 53.1583 303.666 52.1667 303.666 50.79C307.073 50.79 308.776 51.595 308.776 53.205C308.776 54.5817 307.936 55.8767 306.256 57.09C304.576 58.28 302.418 58.875 299.781 58.875ZM302.756 41.095C301.566 41.095 300.47 41.69 299.466 42.88C298.486 44.07 297.775 45.47 297.331 47.08C299.665 46.8933 301.415 46.3683 302.581 45.505C303.771 44.6183 304.366 43.685 304.366 42.705C304.366 42.2383 304.215 41.8533 303.911 41.55C303.631 41.2467 303.246 41.095 302.756 41.095ZM313.544 45.365C313.381 44.7117 313.299 44.105 313.299 43.545C313.299 42.4017 313.638 41.5383 314.314 40.955C314.991 40.3717 315.866 40.08 316.939 40.08C316.939 38.8667 316.624 37.5483 315.994 36.125C317.138 35.285 318.176 34.655 319.109 34.235C320.066 33.7917 321.069 33.57 322.119 33.57C323.169 33.57 323.893 33.7683 324.289 34.165C324.709 34.5383 324.919 35.1217 324.919 35.915C324.919 36.7083 324.756 37.945 324.429 39.625C325.363 39.485 326.308 39.2867 327.264 39.03C327.428 39.52 327.509 40.15 327.509 40.92C327.509 41.69 327.206 42.4133 326.599 43.09C326.016 43.7433 325.153 44.07 324.009 44.07H323.484C322.644 47.8733 322.224 50.8017 322.224 52.855C322.224 54.9083 322.586 56.3433 323.309 57.16C322.003 58.3033 320.614 58.875 319.144 58.875C317.674 58.875 316.613 58.4433 315.959 57.58C315.329 56.6933 315.014 55.3283 315.014 53.485C315.014 52.365 315.423 49.425 316.239 44.665C315.306 44.8283 314.408 45.0617 313.544 45.365Z" fill="#267DCD"/>
</svg>
